<svg class="icon" width="128" height="128" viewBox="0 0 1024 1024" xmlns="http://www.w3.org/2000/svg"><path d="M817.73 229.98c-15.56-15.32-40.7-15.34-56.18.04-15.5 15.35-15.5 40.22.04 55.55 66.75 65.92 103.51 153.58 103.51 246.88 0 192.44-158.42 348.99-353.16 348.99-194.68 0-353.04-156.55-353.04-348.99 0-92.03 35.83-178.86 100.89-244.46 15.36-15.5 15.11-40.36-.54-55.55-15.67-15.19-40.79-14.96-56.18.54-79.72 80.38-123.62 186.74-123.62 299.46C79.45 768.19 273.46 960 511.94 960c238.53 0 432.61-191.81 432.61-427.56 0-114.3-45.04-221.71-126.82-302.46zM512 465.66c17.06 0 30.9-18.11 30.9-40.45V104.45C542.9 82.11 529.06 64 512 64s-30.9 18.11-30.9 40.45v320.76c0 22.34 13.84 40.45 30.9 40.45z"/></svg>