<svg class="icon" width="128" height="128" viewBox="0 0 1024 1024" xmlns="http://www.w3.org/2000/svg"><path d="M134.84 951.19c21.18 11.71 46.53 11.78 67.7 0l644.8-359.31v329.56c0 20.58 16.7 37.28 37.28 37.28 20.58 0 37.28-16.7 37.28-37.28V519.63c.3-2.53 1.04-4.92 1.04-7.53 0-2.61-.75-5.07-1.04-7.6V101.28C921.9 80.7 905.2 64 884.62 64c-20.58 0-37.28 16.7-37.28 37.28v331.05L202.61 73.1c-10.66-5.97-22.22-8.95-33.93-8.95s-23.26 2.98-33.85 8.87c-21.17 11.78-33.78 32.88-33.78 56.59v765.06c.01 23.57 12.61 44.67 33.79 56.52zm41.23-809.27l664.26 370.19-667.91 372.21 3.65-742.4z"/></svg>