<svg class="icon" width="128" height="128" viewBox="0 0 1024 1024" xmlns="http://www.w3.org/2000/svg"><path d="M512 63.93c-247.44 0-448 200.63-448 448.09 0 247.43 200.56 448.06 448 448.06 247.4 0 448-200.63 448-448.06 0-247.47-200.59-448.09-448-448.09zm0 832.13c-212.08 0-384-171.96-384-384.05 0-212.16 171.94-384.08 384-384.08 212.07 0 384 171.96 384 384.08 0 212.09-171.92 384.05-384 384.05zm203.34-415.8c-69.68-47.45-196.07-118.48-268.1-162.44-29.53-18.67-54.33-11.19-56.72 21.71-1.75 88.07 0 257.93 0 347.57 1.46 33.35 30.91 37.76 56.49 24.31l267.74-162.2c-.5-.28 54.83-30.75.6-68.93h-.01z"/></svg>