<svg class="icon" width="128" height="128" viewBox="0 0 1024 1024" xmlns="http://www.w3.org/2000/svg"><path d="M840.25 162.3l-.18-.46c-11.31-26.12-34.67-38.73-62.09-40.81H131.83c-27.97 0-50.5 14.8-62.27 41.54-11.04 27.3-5.38 54.29 14.83 73.31L323.03 474.9v231.12c0 18.11 6.8 34.51 19.71 47.47l128.79 129.13c12.73 13.32 29.33 20.35 48.04 20.35 8.71 0 17.43-1.73 26.64-5.5 25.87-11.27 40.69-33.85 40.69-61.98V474.88l237.6-237.99c21.49-19.8 27.24-46.99 15.75-74.59zM516.83 445.88l-.05 382.95-123.67-122.81V445.88l-254.48-254.8 634.92-2.28-256.72 257.08zm335.4 312.1l-46.48-80.5L960 645.91l-16.6-28.76-179.11-11.58-58.08-100.6s-16.58-28.72-45.34-12.12c-28.76 16.6-12.18 45.32-12.18 45.32l58.08 100.6-79.51 160.94 16.6 28.76L748.29 710.7l46.48 80.5-23.2 59.39 16.58 28.72 55.27-70.26 88.42-12.76-16.58-28.72-63.03-9.59z"/></svg>